<svg width="299" height="542" viewBox="0 0 299 542" fill="none" xmlns="http://www.w3.org/2000/svg">
    <path fill-rule="evenodd" clip-rule="evenodd"
        d="M118.649 99C78.0854 99 43.7764 129.005 38.3714 169.207L0.739039 449.117C-6.15735 500.413 36.1653 544.929 87.7435 540.631L136.815 536.541C141.138 536.181 145.483 536.169 149.809 536.504L211.692 541.307C262.853 545.278 304.766 501.28 298.317 450.371L262.781 169.821C257.654 129.345 223.223 99 182.423 99H118.649ZM95.8365 146C79.5798 146 65.9066 158.189 64.0466 174.339L30.4174 466.339C28.2294 485.337 43.0836 502 62.2073 502H240.313C259.472 502 274.338 485.278 272.093 466.251L237.643 174.251C235.743 158.14 222.086 146 205.864 146H95.8365Z"
        fill="#9A9A9A" />
    <path
        d="M139.31 72C139.31 66.4772 143.787 62 149.31 62V62C154.833 62 159.31 66.4772 159.31 72V112H139.31V72Z"
        fill="#9A9A9A" />
    <path
        d="M149.31 0C155.876 0 162.378 1.29329 168.444 3.80602C174.511 6.31876 180.023 10.0017 184.666 14.6447C189.309 19.2876 192.992 24.7996 195.504 30.8658C198.017 36.9321 199.31 43.4339 199.31 50C199.31 56.5661 198.017 63.0679 195.504 69.1342C192.992 75.2005 189.309 80.7124 184.666 85.3553C180.023 89.9983 174.511 93.6812 168.444 96.194C162.378 98.7067 155.876 100 149.31 100L149.31 87.5C154.235 87.5 159.111 86.53 163.661 84.6455C168.211 82.7609 172.345 79.9987 175.827 76.5165C179.309 73.0343 182.071 68.9003 183.956 64.3506C185.84 59.8009 186.81 54.9246 186.81 50C186.81 45.0754 185.84 40.1991 183.956 35.6494C182.071 31.0997 179.309 26.9657 175.827 23.4835C172.345 20.0013 168.211 17.2391 163.661 15.3545C159.111 13.47 154.235 12.5 149.31 12.5V0Z"
        fill="#9A9A9A" />
    <path
        d="M149.31 0C142.744 0 136.242 1.29329 130.176 3.80602C124.11 6.31876 118.598 10.0017 113.955 14.6447C109.312 19.2876 105.629 24.7996 103.116 30.8658C100.604 36.9321 99.3103 43.4339 99.3103 50C99.3103 56.5661 100.604 63.0679 103.116 69.1342C105.629 75.2005 109.312 80.7124 113.955 85.3553C118.598 89.9983 124.11 93.6812 130.176 96.194C136.242 98.7067 142.744 100 149.31 100L149.31 87.5C144.386 87.5 139.509 86.53 134.96 84.6455C130.41 82.7609 126.276 79.9987 122.794 76.5165C119.312 73.0343 116.549 68.9003 114.665 64.3506C112.78 59.8009 111.81 54.9246 111.81 50C111.81 45.0754 112.78 40.1991 114.665 35.6494C116.549 31.0997 119.312 26.9657 122.794 23.4835C126.276 20.0013 130.41 17.2391 134.96 15.3545C139.509 13.47 144.386 12.5 149.31 12.5V0Z"
        fill="#9A9A9A" />
</svg>
