<svg fill="none" height="64" viewBox="0 0 64 64" width="64" xmlns="http://www.w3.org/2000/svg">
    <path
        d="M29.3335 48H34.6668V42.6666H29.3335V48ZM32.0002 5.33331C17.2802 5.33331 5.3335 17.28 5.3335 32C5.3335 46.72 17.2802 58.6666 32.0002 58.6666C46.7202 58.6666 58.6668 46.72 58.6668 32C58.6668 17.28 46.7202 5.33331 32.0002 5.33331ZM32.0002 53.3333C20.2402 53.3333 10.6668 43.76 10.6668 32C10.6668 20.24 20.2402 10.6666 32.0002 10.6666C43.7602 10.6666 53.3335 20.24 53.3335 32C53.3335 43.76 43.7602 53.3333 32.0002 53.3333ZM32.0002 16C26.1068 16 21.3335 20.7733 21.3335 26.6666H26.6668C26.6668 23.7333 29.0668 21.3333 32.0002 21.3333C34.9335 21.3333 37.3335 23.7333 37.3335 26.6666C37.3335 32 29.3335 31.3333 29.3335 40H34.6668C34.6668 34 42.6668 33.3333 42.6668 26.6666C42.6668 20.7733 37.8935 16 32.0002 16Z"
        fill="#9A9A9A" />
</svg>
