<svg fill="none" height="100" viewBox="0 0 100 100" width="100" xmlns="http://www.w3.org/2000/svg">
    <path
        d="M100 50C100 56.5661 98.7067 63.0679 96.194 69.1342C93.6812 75.2005 89.9983 80.7124 85.3553 85.3553C80.7124 89.9983 75.2004 93.6812 69.1342 96.194C63.0679 98.7067 56.5661 100 50 100C43.4339 100 36.9321 98.7067 30.8658 96.194C24.7995 93.6812 19.2876 89.9983 14.6447 85.3553C10.0017 80.7124 6.31876 75.2004 3.80602 69.1342C1.29329 63.0679 -5.74026e-07 56.5661 0 50H12.5C12.5 54.9246 13.47 59.8009 15.3545 64.3506C17.2391 68.9003 20.0013 73.0343 23.4835 76.5165C26.9657 79.9987 31.0997 82.7609 35.6494 84.6455C40.1991 86.53 45.0754 87.5 50 87.5C54.9246 87.5 59.8009 86.53 64.3506 84.6455C68.9003 82.7609 73.0343 79.9987 76.5165 76.5165C79.9987 73.0343 82.7609 68.9003 84.6455 64.3506C86.53 59.8009 87.5 54.9246 87.5 50H100Z"
        fill="#D20001" />
    <path
        d="M100 50C100 43.4339 98.7067 36.9321 96.194 30.8658C93.6812 24.7995 89.9983 19.2876 85.3553 14.6447C80.7124 10.0017 75.2004 6.31876 69.1342 3.80602C63.0679 1.29329 56.5661 0 50 0C43.4339 0 36.9321 1.29329 30.8658 3.80602C24.7995 6.31876 19.2876 10.0017 14.6447 14.6447C10.0017 19.2876 6.31876 24.7996 3.80602 30.8658C1.29329 36.9321 -5.74026e-07 43.4339 0 50H12.5C12.5 45.0754 13.47 40.1991 15.3545 35.6494C17.2391 31.0997 20.0013 26.9657 23.4835 23.4835C26.9657 20.0013 31.0997 17.2391 35.6494 15.3545C40.1991 13.47 45.0754 12.5 50 12.5C54.9246 12.5 59.8009 13.47 64.3506 15.3545C68.9003 17.2391 73.0343 20.0013 76.5165 23.4835C79.9987 26.9657 82.7609 31.0997 84.6455 35.6494C86.53 40.1991 87.5 45.0754 87.5 50H100Z"
        fill="#D20001" />
    <path
        d="M67.2926 67.7417C65.437 65.0916 62.9806 62.9184 60.1242 61.3996C57.2677 59.8808 54.0924 59.0596 50.8578 59.0031C47.6232 58.9467 44.4211 59.6565 41.5134 61.0747C38.6057 62.4929 36.0749 64.5791 34.128 67.1628L38.221 70.2471C39.6812 68.3093 41.5793 66.7447 43.7601 65.681C45.9408 64.6174 48.3424 64.085 50.7683 64.1273C53.1943 64.1697 55.5758 64.7856 57.7181 65.9247C59.8605 67.0638 61.7028 68.6937 63.0945 70.6813L67.2926 67.7417Z"
        fill="#D20001" />
    <circle cx="36.25" cy="43.25" fill="#D20001" r="6.25" />
    <circle cx="63.25" cy="43.25" fill="#D20001" r="6.25" />
    <line stroke="#D20001" stroke-width="4" x1="56.2308" x2="68.2308" y1="35.1538" y2="30.1538" />
    <line stroke="#D20001" stroke-width="4" transform="matrix(-0.923077 -0.384615 -0.384615 0.923077 42 37)" x2="13"
        y1="-2" y2="-2" />
</svg>
