<svg fill="none" height="140" viewBox="0 0 100 140" width="100" xmlns="http://www.w3.org/2000/svg">
    <path
        d="M100 90C100 96.5661 98.7067 103.068 96.194 109.134C93.6812 115.2 89.9983 120.712 85.3553 125.355C80.7124 129.998 75.2004 133.681 69.1342 136.194C63.0679 138.707 56.5661 140 50 140C43.4339 140 36.9321 138.707 30.8658 136.194C24.7995 133.681 19.2876 129.998 14.6447 125.355C10.0017 120.712 6.31876 115.2 3.80602 109.134C1.29329 103.068 -5.74026e-07 96.5661 0 90H12.5C12.5 94.9246 13.47 99.8009 15.3545 104.351C17.2391 108.9 20.0013 113.034 23.4835 116.517C26.9657 119.999 31.0997 122.761 35.6494 124.645C40.1991 126.53 45.0754 127.5 50 127.5C54.9246 127.5 59.8009 126.53 64.3506 124.645C68.9003 122.761 73.0343 119.999 76.5165 116.517C79.9987 113.034 82.7609 108.9 84.6455 104.351C86.53 99.8009 87.5 94.9246 87.5 90H100Z"
        fill="#9A9A9A" />
    <path
        d="M100 90C100 83.4339 98.7067 76.9321 96.194 70.8658C93.6812 64.7995 89.9983 59.2876 85.3553 54.6447C80.7124 50.0017 75.2004 46.3188 69.1342 43.806C63.0679 41.2933 56.5661 40 50 40C43.4339 40 36.9321 41.2933 30.8658 43.806C24.7995 46.3188 19.2876 50.0017 14.6447 54.6447C10.0017 59.2876 6.31876 64.7996 3.80602 70.8658C1.29329 76.9321 -5.74026e-07 83.4339 0 90H12.5C12.5 85.0754 13.47 80.1991 15.3545 75.6494C17.2391 71.0997 20.0013 66.9657 23.4835 63.4835C26.9657 60.0013 31.0997 57.2391 35.6494 55.3545C40.1991 53.47 45.0754 52.5 50 52.5C54.9246 52.5 59.8009 53.47 64.3506 55.3545C68.9003 57.2391 73.0343 60.0013 76.5165 63.4835C79.9987 66.9657 82.7609 71.0997 84.6455 75.6494C86.53 80.1991 87.5 85.0754 87.5 90H100Z"
        fill="#9A9A9A" />
    <circle cx="37.25" cy="82.25" fill="#9A9A9A" r="6.25" />
    <circle cx="64.25" cy="82.25" fill="#9A9A9A" r="6.25" />
    <circle cx="50.125" cy="109.125" fill="#9A9A9A" r="3.125" />
    <path
        d="M82.76 17.1333C83.7866 15.28 85.76 14.1867 86.9066 12.5467C88.12 10.8267 87.44 7.61333 84 7.61333C81.7466 7.61333 80.64 9.32 80.1733 10.7333L76.72 9.28C77.6666 6.44 80.24 4 83.9866 4C87.12 4 89.2666 5.42667 90.36 7.21333C91.2933 8.74667 91.84 11.6133 90.4 13.7467C88.8 16.1067 87.2666 16.8267 86.44 18.3467C86.1066 18.96 85.9733 19.36 85.9733 21.3333H82.12C82.1066 20.2933 81.9466 18.6 82.76 17.1333ZM86.6666 26.6667C86.6666 28.1333 85.4666 29.3333 84 29.3333C82.5333 29.3333 81.3333 28.1333 81.3333 26.6667C81.3333 25.2 82.5333 24 84 24C85.4666 24 86.6666 25.2 86.6666 26.6667Z"
        fill="#9A9A9A" />
</svg>
