<svg fill="none" height="100" viewBox="0 0 100 100" width="100" xmlns="http://www.w3.org/2000/svg">
    <path
        d="M100 50C100 56.5661 98.7067 63.0679 96.194 69.1342C93.6812 75.2005 89.9983 80.7124 85.3553 85.3553C80.7124 89.9983 75.2004 93.6812 69.1342 96.194C63.0679 98.7067 56.5661 100 50 100C43.4339 100 36.9321 98.7067 30.8658 96.194C24.7995 93.6812 19.2876 89.9983 14.6447 85.3553C10.0017 80.7124 6.31876 75.2004 3.80602 69.1342C1.29329 63.0679 -5.74026e-07 56.5661 0 50H12.5C12.5 54.9246 13.47 59.8009 15.3545 64.3506C17.2391 68.9003 20.0013 73.0343 23.4835 76.5165C26.9657 79.9987 31.0997 82.7609 35.6494 84.6455C40.1991 86.53 45.0754 87.5 50 87.5C54.9246 87.5 59.8009 86.53 64.3506 84.6455C68.9003 82.7609 73.0343 79.9987 76.5165 76.5165C79.9987 73.0343 82.7609 68.9003 84.6455 64.3506C86.53 59.8009 87.5 54.9246 87.5 50H100Z"
        fill="#FF21B4" />
    <path
        d="M100 50C100 43.4339 98.7067 36.9321 96.194 30.8658C93.6812 24.7995 89.9983 19.2876 85.3553 14.6447C80.7124 10.0017 75.2004 6.31876 69.1342 3.80602C63.0679 1.29329 56.5661 0 50 0C43.4339 0 36.9321 1.29329 30.8658 3.80602C24.7995 6.31876 19.2876 10.0017 14.6447 14.6447C10.0017 19.2876 6.31876 24.7996 3.80602 30.8658C1.29329 36.9321 -5.74026e-07 43.4339 0 50H12.5C12.5 45.0754 13.47 40.1991 15.3545 35.6494C17.2391 31.0997 20.0013 26.9657 23.4835 23.4835C26.9657 20.0013 31.0997 17.2391 35.6494 15.3545C40.1991 13.47 45.0754 12.5 50 12.5C54.9246 12.5 59.8009 13.47 64.3506 15.3545C68.9003 17.2391 73.0343 20.0013 76.5165 23.4835C79.9987 26.9657 82.7609 31.0997 84.6455 35.6494C86.53 40.1991 87.5 45.0754 87.5 50H100Z"
        fill="#FF21B4" />
    <path
        d="M42.5 30.25C42.5 29.4292 42.3383 28.6165 42.0242 27.8582C41.7102 27.0999 41.2498 26.4109 40.6694 25.8306C40.0891 25.2502 39.4001 24.7898 38.6418 24.4758C37.8835 24.1617 37.0708 24 36.25 24C35.4292 24 34.6165 24.1617 33.8582 24.4758C33.0999 24.7898 32.4109 25.2502 31.8306 25.8306C31.2502 26.4109 30.7898 27.0999 30.4758 27.8582C30.1617 28.6165 30 29.4292 30 30.25L33.75 30.25C33.75 29.9217 33.8147 29.5966 33.9403 29.2933C34.0659 28.99 34.2501 28.7144 34.4822 28.4822C34.7144 28.2501 34.99 28.0659 35.2933 27.9403C35.5966 27.8147 35.9217 27.75 36.25 27.75C36.5783 27.75 36.9034 27.8147 37.2067 27.9403C37.51 28.0659 37.7856 28.2501 38.0178 28.4822C38.2499 28.7144 38.4341 28.99 38.5597 29.2933C38.6853 29.5966 38.75 29.9217 38.75 30.25H42.5Z"
        fill="#FF21B4" />
    <path
        d="M69.5 30.25C69.5 29.4292 69.3383 28.6165 69.0242 27.8582C68.7102 27.0999 68.2498 26.4109 67.6694 25.8306C67.0891 25.2502 66.4001 24.7898 65.6418 24.4758C64.8835 24.1617 64.0708 24 63.25 24C62.4292 24 61.6165 24.1617 60.8582 24.4758C60.0999 24.7898 59.4109 25.2502 58.8306 25.8306C58.2502 26.4109 57.7898 27.0999 57.4758 27.8582C57.1617 28.6165 57 29.4292 57 30.25L60.75 30.25C60.75 29.9217 60.8147 29.5966 60.9403 29.2933C61.0659 28.99 61.2501 28.7144 61.4822 28.4822C61.7144 28.2501 61.99 28.0659 62.2933 27.9403C62.5966 27.8147 62.9217 27.75 63.25 27.75C63.5783 27.75 63.9034 27.8147 64.2067 27.9403C64.51 28.0659 64.7856 28.2501 65.0178 28.4822C65.2499 28.7144 65.4341 28.99 65.5597 29.2933C65.6853 29.5966 65.75 29.9217 65.75 30.25H69.5Z"
        fill="#FF21B4" />
    <circle cx="36.25" cy="43.25" fill="#FF21B4" r="6.25" />
    <circle cx="63.25" cy="43.25" fill="#FF21B4" r="6.25" />
    <path
        d="M62 62.5C62 65.8152 60.683 68.9946 58.3388 71.3388C55.9946 73.683 52.8152 75 49.5 75C46.1848 75 43.0054 73.683 40.6612 71.3388C38.317 68.9946 37 65.8152 37 62.5L42 62.5C42 64.4891 42.7902 66.3968 44.1967 67.8033C45.6032 69.2098 47.5109 70 49.5 70C51.4891 70 53.3968 69.2098 54.8033 67.8033C56.2098 66.3968 57 64.4891 57 62.5H62Z"
        fill="#FF21B4" />
</svg>
