<svg fill="none" height="100" viewBox="0 0 100 100" width="100" xmlns="http://www.w3.org/2000/svg">
    <path
        d="M100 50C100 56.5661 98.7067 63.0679 96.194 69.1342C93.6812 75.2005 89.9983 80.7124 85.3553 85.3553C80.7124 89.9983 75.2004 93.6812 69.1342 96.194C63.0679 98.7067 56.5661 100 50 100C43.4339 100 36.9321 98.7067 30.8658 96.194C24.7995 93.6812 19.2876 89.9983 14.6447 85.3553C10.0017 80.7124 6.31876 75.2004 3.80602 69.1342C1.29329 63.0679 -5.74026e-07 56.5661 0 50H12.5C12.5 54.9246 13.47 59.8009 15.3545 64.3506C17.2391 68.9003 20.0013 73.0343 23.4835 76.5165C26.9657 79.9987 31.0997 82.7609 35.6494 84.6455C40.1991 86.53 45.0754 87.5 50 87.5C54.9246 87.5 59.8009 86.53 64.3506 84.6455C68.9003 82.7609 73.0343 79.9987 76.5165 76.5165C79.9987 73.0343 82.7609 68.9003 84.6455 64.3506C86.53 59.8009 87.5 54.9246 87.5 50H100Z"
        fill="#00A400" />
    <path
        d="M100 50C100 43.4339 98.7067 36.9321 96.194 30.8658C93.6812 24.7995 89.9983 19.2876 85.3553 14.6447C80.7124 10.0017 75.2004 6.31876 69.1342 3.80602C63.0679 1.29329 56.5661 0 50 0C43.4339 0 36.9321 1.29329 30.8658 3.80602C24.7995 6.31876 19.2876 10.0017 14.6447 14.6447C10.0017 19.2876 6.31876 24.7996 3.80602 30.8658C1.29329 36.9321 -5.74026e-07 43.4339 0 50H12.5C12.5 45.0754 13.47 40.1991 15.3545 35.6494C17.2391 31.0997 20.0013 26.9657 23.4835 23.4835C26.9657 20.0013 31.0997 17.2391 35.6494 15.3545C40.1991 13.47 45.0754 12.5 50 12.5C54.9246 12.5 59.8009 13.47 64.3506 15.3545C68.9003 17.2391 73.0343 20.0013 76.5165 23.4835C79.9987 26.9657 82.7609 31.0997 84.6455 35.6494C86.53 40.1991 87.5 45.0754 87.5 50H100Z"
        fill="#00A400" />
    <path
        d="M57.5968 66.1057C58.1764 65.6999 58.3228 64.8944 57.8478 64.3699C57.0539 63.4932 56.1121 62.7581 55.0621 62.1998C53.6339 61.4404 52.0462 61.0298 50.4289 61.0016C48.8116 60.9733 47.2106 61.3283 45.7567 62.0374C44.6879 62.5586 43.7209 63.2605 42.8969 64.1089C42.404 64.6165 42.5221 65.4266 43.0872 65.8525C43.6524 66.2783 44.4494 66.1558 44.9631 65.6691C45.529 65.133 46.175 64.6844 46.88 64.3405C47.9704 63.8087 49.1712 63.5425 50.3842 63.5637C51.5972 63.5848 52.7879 63.8928 53.8591 64.4623C54.5517 64.8306 55.1816 65.3015 55.7285 65.857C56.2249 66.3613 57.0171 66.5116 57.5968 66.1057Z"
        fill="#00A400" />
    <circle cx="37.25" cy="43.25" fill="#00A400" r="6.25" />
    <circle cx="64.25" cy="43.25" fill="#00A400" r="6.25" />
    <line stroke="#00A400" stroke-width="4" x1="58" x2="71" y1="32" y2="32" />
    <line stroke="#00A400" stroke-width="4" transform="matrix(1 0 0 -1 30 30)" x2="13" y1="-2"
        y2="-2" />
</svg>
