<svg fill="none" height="100" viewBox="0 0 100 100" width="100" xmlns="http://www.w3.org/2000/svg">
    <path
        d="M100 50C100 56.5661 98.7067 63.0679 96.194 69.1342C93.6812 75.2005 89.9983 80.7124 85.3553 85.3553C80.7124 89.9983 75.2004 93.6812 69.1342 96.194C63.0679 98.7067 56.5661 100 50 100C43.4339 100 36.9321 98.7067 30.8658 96.194C24.7995 93.6812 19.2876 89.9983 14.6447 85.3553C10.0017 80.7124 6.31876 75.2004 3.80602 69.1342C1.29329 63.0679 -5.74026e-07 56.5661 0 50H12.5C12.5 54.9246 13.47 59.8009 15.3545 64.3506C17.2391 68.9003 20.0013 73.0343 23.4835 76.5165C26.9657 79.9987 31.0997 82.7609 35.6494 84.6455C40.1991 86.53 45.0754 87.5 50 87.5C54.9246 87.5 59.8009 86.53 64.3506 84.6455C68.9003 82.7609 73.0343 79.9987 76.5165 76.5165C79.9987 73.0343 82.7609 68.9003 84.6455 64.3506C86.53 59.8009 87.5 54.9246 87.5 50H100Z"
        fill="#717171" />
    <path
        d="M100 50C100 43.4339 98.7067 36.9321 96.194 30.8658C93.6812 24.7995 89.9983 19.2876 85.3553 14.6447C80.7124 10.0017 75.2004 6.31876 69.1342 3.80602C63.0679 1.29329 56.5661 0 50 0C43.4339 0 36.9321 1.29329 30.8658 3.80602C24.7995 6.31876 19.2876 10.0017 14.6447 14.6447C10.0017 19.2876 6.31876 24.7996 3.80602 30.8658C1.29329 36.9321 -5.74026e-07 43.4339 0 50H12.5C12.5 45.0754 13.47 40.1991 15.3545 35.6494C17.2391 31.0997 20.0013 26.9657 23.4835 23.4835C26.9657 20.0013 31.0997 17.2391 35.6494 15.3545C40.1991 13.47 45.0754 12.5 50 12.5C54.9246 12.5 59.8009 13.47 64.3506 15.3545C68.9003 17.2391 73.0343 20.0013 76.5165 23.4835C79.9987 26.9657 82.7609 31.0997 84.6455 35.6494C86.53 40.1991 87.5 45.0754 87.5 50H100Z"
        fill="#717171" />
    <path
        d="M44.9047 43.6547C44.9047 44.4754 44.743 45.2881 44.4289 46.0464C44.1148 46.8047 43.6544 47.4937 43.0741 48.0741C42.4937 48.6544 41.8047 49.1148 41.0464 49.4289C40.2881 49.743 39.4754 49.9047 38.6547 49.9047C37.8339 49.9047 37.0212 49.743 36.2629 49.4289C35.5046 49.1148 34.8156 48.6544 34.2352 48.0741C33.6549 47.4937 33.1945 46.8047 32.8804 46.0464C32.5663 45.2881 32.4047 44.4754 32.4047 43.6547L36.1547 43.6547C36.1547 43.983 36.2193 44.3081 36.345 44.6114C36.4706 44.9147 36.6547 45.1903 36.8869 45.4224C37.119 45.6546 37.3946 45.8387 37.698 45.9644C38.0013 46.09 38.3264 46.1547 38.6547 46.1547C38.983 46.1547 39.3081 46.09 39.6114 45.9644C39.9147 45.8387 40.1903 45.6546 40.4224 45.4224C40.6546 45.1903 40.8387 44.9147 40.9644 44.6114C41.09 44.3081 41.1547 43.983 41.1547 43.6547H44.9047Z"
        fill="#717171" />
    <path
        d="M68.9049 43.6545C68.9049 44.4753 68.7432 45.288 68.4292 46.0463C68.1151 46.8046 67.6547 47.4936 67.0743 48.074C66.494 48.6543 65.805 49.1147 65.0467 49.4288C64.2884 49.7429 63.4757 49.9045 62.6549 49.9045C61.8341 49.9045 61.0214 49.7429 60.2631 49.4288C59.5049 49.1147 58.8159 48.6543 58.2355 48.074C57.6551 47.4936 57.1948 46.8046 56.8807 46.0463C56.5666 45.288 56.4049 44.4753 56.4049 43.6545L60.1549 43.6545C60.1549 43.9828 60.2196 44.3079 60.3452 44.6112C60.4708 44.9146 60.655 45.1902 60.8871 45.4223C61.1193 45.6545 61.3949 45.8386 61.6982 45.9642C62.0015 46.0899 62.3266 46.1545 62.6549 46.1545C62.9832 46.1545 63.3083 46.0899 63.6116 45.9642C63.9149 45.8386 64.1905 45.6545 64.4227 45.4223C64.6548 45.1902 64.839 44.9146 64.9646 44.6112C65.0902 44.3079 65.1549 43.9828 65.1549 43.6545H68.9049Z"
        fill="#717171" />
    <line stroke="#717171" stroke-width="4" x1="30.2308" x2="42.2308" y1="35.1538" y2="30.1538" />
    <line stroke="#717171" stroke-width="4" transform="matrix(-0.923077 -0.384615 -0.384615 0.923077 70 37)" x2="13"
        y1="-2" y2="-2" />
    <ellipse cx="50" cy="66" fill="#717171" rx="14" ry="6" />
</svg>
