<svg fill="none" height="100" viewBox="0 0 100 100" width="100" xmlns="http://www.w3.org/2000/svg">
    <path
        d="M100 50C100 56.5661 98.7067 63.0679 96.194 69.1342C93.6812 75.2005 89.9983 80.7124 85.3553 85.3553C80.7124 89.9983 75.2004 93.6812 69.1342 96.194C63.0679 98.7067 56.5661 100 50 100C43.4339 100 36.9321 98.7067 30.8658 96.194C24.7995 93.6812 19.2876 89.9983 14.6447 85.3553C10.0017 80.7124 6.31876 75.2004 3.80602 69.1342C1.29329 63.0679 -5.74026e-07 56.5661 0 50H12.5C12.5 54.9246 13.47 59.8009 15.3545 64.3506C17.2391 68.9003 20.0013 73.0343 23.4835 76.5165C26.9657 79.9987 31.0997 82.7609 35.6494 84.6455C40.1991 86.53 45.0754 87.5 50 87.5C54.9246 87.5 59.8009 86.53 64.3506 84.6455C68.9003 82.7609 73.0343 79.9987 76.5165 76.5165C79.9987 73.0343 82.7609 68.9003 84.6455 64.3506C86.53 59.8009 87.5 54.9246 87.5 50H100Z"
        fill="#E2E111" />
    <path
        d="M100 50C100 43.4339 98.7067 36.9321 96.194 30.8658C93.6812 24.7995 89.9983 19.2876 85.3553 14.6447C80.7124 10.0017 75.2004 6.31876 69.1342 3.80602C63.0679 1.29329 56.5661 0 50 0C43.4339 0 36.9321 1.29329 30.8658 3.80602C24.7995 6.31876 19.2876 10.0017 14.6447 14.6447C10.0017 19.2876 6.31876 24.7996 3.80602 30.8658C1.29329 36.9321 -5.74026e-07 43.4339 0 50H12.5C12.5 45.0754 13.47 40.1991 15.3545 35.6494C17.2391 31.0997 20.0013 26.9657 23.4835 23.4835C26.9657 20.0013 31.0997 17.2391 35.6494 15.3545C40.1991 13.47 45.0754 12.5 50 12.5C54.9246 12.5 59.8009 13.47 64.3506 15.3545C68.9003 17.2391 73.0343 20.0013 76.5165 23.4835C79.9987 26.9657 82.7609 31.0997 84.6455 35.6494C86.53 40.1991 87.5 45.0754 87.5 50H100Z"
        fill="#E2E111" />
    <path
        d="M44.5 43.25C44.5 42.4292 44.3383 41.6165 44.0242 40.8582C43.7102 40.0999 43.2498 39.4109 42.6694 38.8306C42.0891 38.2502 41.4001 37.7898 40.6418 37.4758C39.8835 37.1617 39.0708 37 38.25 37C37.4292 37 36.6165 37.1617 35.8582 37.4758C35.0999 37.7898 34.4109 38.2502 33.8306 38.8306C33.2502 39.4109 32.7898 40.0999 32.4758 40.8582C32.1617 41.6165 32 42.4292 32 43.25L35.75 43.25C35.75 42.9217 35.8147 42.5966 35.9403 42.2933C36.0659 41.99 36.2501 41.7144 36.4822 41.4822C36.7144 41.2501 36.99 41.0659 37.2933 40.9403C37.5966 40.8147 37.9217 40.75 38.25 40.75C38.5783 40.75 38.9034 40.8147 39.2067 40.9403C39.51 41.0659 39.7856 41.2501 40.0178 41.4822C40.2499 41.7144 40.4341 41.99 40.5597 42.2933C40.6853 42.5966 40.75 42.9217 40.75 43.25H44.5Z"
        fill="#E2E111" />
    <path
        d="M68.5002 43.2501C68.5002 42.4294 68.3386 41.6166 68.0245 40.8584C67.7104 40.1001 67.25 39.4111 66.6697 38.8307C66.0893 38.2503 65.4003 37.79 64.642 37.4759C63.8837 37.1618 63.071 37.0001 62.2502 37.0001C61.4295 37.0001 60.6168 37.1618 59.8585 37.4759C59.1002 37.79 58.4112 38.2503 57.8308 38.8307C57.2505 39.4111 56.7901 40.1001 56.476 40.8584C56.1619 41.6166 56.0002 42.4294 56.0002 43.2501L59.7502 43.2501C59.7502 42.9218 59.8149 42.5967 59.9405 42.2934C60.0662 41.9901 60.2503 41.7145 60.4825 41.4824C60.7146 41.2502 60.9902 41.0661 61.2935 40.9404C61.5968 40.8148 61.9219 40.7501 62.2502 40.7501C62.5785 40.7501 62.9036 40.8148 63.207 40.9404C63.5103 41.0661 63.7859 41.2502 64.018 41.4824C64.2502 41.7145 64.4343 41.9901 64.5599 42.2934C64.6856 42.5967 64.7502 42.9218 64.7502 43.2501H68.5002Z"
        fill="#E2E111" />
    <path
        d="M62 61.5C62 64.8152 60.683 67.9946 58.3388 70.3388C55.9946 72.683 52.8152 74 49.5 74C46.1848 74 43.0054 72.683 40.6612 70.3388C38.317 67.9946 37 64.8152 37 61.5L42 61.5C42 63.4891 42.7902 65.3968 44.1967 66.8033C45.6032 68.2098 47.5109 69 49.5 69C51.4891 69 53.3968 68.2098 54.8033 66.8033C56.2098 65.3968 57 63.4891 57 61.5H62Z"
        fill="#E2E111" />
</svg>
