<svg fill="none" height="91" viewBox="0 0 237 91" width="237" xmlns="http://www.w3.org/2000/svg">
    <rect fill="#151515" height="91" width="114" x="81" />
    <path d="M57 0H82L107 91H57V0Z" fill="#151515" />
    <rect fill="#151515" height="91" width="10" x="47" />
    <path d="M19.975 0H47V91H0L19.975 0Z" fill="#151515" />
    <rect fill="#D9D9D9" height="55" transform="rotate(-90 25 83)" width="25" x="25" y="83" />
    <rect fill="#D9D9D9" height="44" transform="rotate(-90 29 33)" width="25" x="29" y="33" />
    <path d="M29 8H52L40 83H15L29 8Z" fill="#D9D9D9" />
    <path d="M52 8H73L90 83H65L52 8Z" fill="#D9D9D9" />
    <rect fill="#151515" height="83" width="37" x="187" y="8" />
    <rect fill="#151515" height="63" transform="rotate(-90 174 38)" width="38" x="174" y="38" />
    <rect fill="#151515" height="63" transform="rotate(-90 174 91)" width="38" x="174" y="91" />
    <rect fill="#D9D9D9" height="75" width="25" x="193" y="8" />
    <rect fill="#D9D9D9" height="45" transform="rotate(-90 183 28)" width="20" x="183" y="28" />
    <rect fill="#D9D9D9" height="45" transform="rotate(-90 183 83)" width="20" x="183" y="83" />
    <path
        d="M182 45.5C182 54.4991 179.331 63.296 174.332 70.7784C169.332 78.2609 162.226 84.0927 153.912 87.5365C145.598 90.9803 136.45 91.8814 127.623 90.1257C118.797 88.3701 110.69 84.0366 104.327 77.6734C97.9634 71.3101 93.6299 63.2027 91.8743 54.3766C90.1186 45.5505 91.0197 36.4019 94.4635 28.0879C97.9073 19.7739 103.739 12.6677 111.222 7.66813C118.704 2.66853 127.501 -1.07313e-07 136.5 0V45.5H182Z"
        fill="#151515" />
    <path d="M129 30H182V43.5L181.338 57H129V30Z" fill="#151515" />
    <path d="M148 0V53H136.5L125 52.3375V1.5L136.5 0L148 0Z" fill="#151515" />
    <path
        d="M174 45.5C174 52.9168 171.801 60.167 167.68 66.3339C163.56 72.5007 157.703 77.3072 150.851 80.1455C143.998 82.9838 136.458 83.7264 129.184 82.2794C121.91 80.8325 115.228 77.261 109.983 72.0165C104.739 66.772 101.167 60.0902 99.7206 52.8159C98.2736 45.5416 99.0162 38.0016 101.855 31.1494C104.693 24.2971 109.499 18.4404 115.666 14.3199C121.833 10.1993 129.083 8 136.5 8V26.75C132.792 26.75 129.166 27.8497 126.083 29.9099C123 31.9702 120.596 34.8986 119.177 38.3247C117.758 41.7508 117.387 45.5208 118.11 49.1579C118.834 52.7951 120.62 56.136 123.242 58.7583C125.864 61.3805 129.205 63.1663 132.842 63.8897C136.479 64.6132 140.249 64.2419 143.675 62.8227C147.101 61.4036 150.03 59.0004 152.09 55.9169C154.15 52.8335 155.25 49.2084 155.25 45.5H174Z"
        fill="#D9D9D9" />
    <path d="M133.781 38H173.781L174 45.5L173.5 48.5L173.281 53H133.781V38Z" fill="#D9D9D9" />
</svg>
