<svg fill="none" height="91" viewBox="0 0 253 91" width="253" xmlns="http://www.w3.org/2000/svg">
    <rect fill="#151515" height="53" width="148" x="53" y="38" />
    <rect fill="#151515" height="91" width="30" x="170" />
    <path
        d="M160 34C160 27.2754 162.405 20.7019 166.91 15.1106C171.415 9.51934 177.818 5.16148 185.31 2.5881C192.802 0.0147171 201.045 -0.6586 208.999 0.653297C216.952 1.96519 224.257 5.20338 229.991 9.95837C235.725 14.7134 239.63 20.7716 241.212 27.3669C242.794 33.9623 241.982 40.7985 238.879 47.0112C235.776 53.2239 230.521 58.534 223.778 62.27C217.036 66.0059 209.109 68 201 68V34H160Z"
        fill="#151515" />
    <path d="M199 37L224.962 64L253 91H199V37Z" fill="#151515" />
    <rect fill="#D9D9D9" height="75" width="25" x="176" y="8" />
    <path
        d="M184 33C184 28.0555 185.466 23.222 188.213 19.1107C190.96 14.9995 194.865 11.7952 199.433 9.90301C204.001 8.01082 209.028 7.51574 213.877 8.48037C218.727 9.445 223.181 11.826 226.678 15.3223C230.174 18.8186 232.555 23.2732 233.52 28.1227C234.484 32.9723 233.989 37.9989 232.097 42.5671C230.205 47.1352 227 51.0397 222.889 53.7867C218.778 56.5338 213.945 58 209 58V41.35C210.651 41.35 212.266 40.8603 213.639 39.9428C215.012 39.0253 216.082 37.7212 216.714 36.1954C217.346 34.6696 217.512 32.9907 217.19 31.371C216.867 29.7513 216.072 28.2634 214.904 27.0957C213.737 25.9279 212.249 25.1326 210.629 24.8104C209.009 24.4883 207.33 24.6536 205.805 25.2856C204.279 25.9176 202.975 26.9878 202.057 28.361C201.14 29.7341 200.65 31.3485 200.65 33H184Z"
        fill="#D9D9D9" />
    <path d="M209 58L221.019 70.5L234 83H209V58Z" fill="#D9D9D9" />
    <rect fill="#151515" height="83" width="37" x="107" y="8" />
    <rect fill="#151515" height="91" transform="rotate(-90 80 38)" width="38" x="80" y="38" />
    <rect fill="#D9D9D9" height="75" width="25" x="113" y="8" />
    <rect fill="#D9D9D9" height="75" transform="rotate(-90 88 28)" width="20" x="88" y="28" />
    <path d="M80 0H30.5C13.6553 0 0 13.6553 0 30.5C0 47.3447 13.6553 61 30.5 61H80V0Z"
        fill="#151515" />
    <path d="M0 30H49.5C66.3447 30 80 43.6553 80 60.5C80 77.3447 66.3447 91 49.5 91H0V30Z"
        fill="#151515" />
    <path
        d="M75.0878 8H29.9123C16.1052 8 4.91233 19.1929 4.91233 33C4.91233 46.8071 16.1052 58 29.9123 58H75.0878V8Z"
        fill="#D9D9D9" />
    <path
        d="M4.91232 33H50.0878C63.8949 33 75.0878 44.1929 75.0878 58C75.0878 71.8071 63.8949 83 50.0878 83H4.91232V33Z"
        fill="#D9D9D9" />
    <path
        d="M61.0527 58C61.0527 55.2386 58.8141 53 56.0527 53H4.91232V63H56.0527C58.8141 63 61.0527 60.7614 61.0527 58Z"
        fill="#151515" />
    <path
        d="M18.9473 33C18.9473 30.2386 21.1859 28 23.9473 28H75.0877V38H23.9473C21.1859 38 18.9473 35.7614 18.9473 33Z"
        fill="#151515" />
</svg>
