<svg fill="none" height="346" viewBox="0 0 600 346" width="600" xmlns="http://www.w3.org/2000/svg">
    <rect fill="#E45959" height="163.919" rx="10.3746" transform="matrix(-1 0 0 1 110.663 0)"
        width="20.7493" />
    <rect fill="#E45959" height="163.919" rx="10.3746" transform="matrix(-1 0 0 1 20.7493 0)"
        width="20.7493" />
    <rect fill="#E45959" height="109.971" rx="10.3746"
        transform="matrix(0 -1 -1 0 109.971 92.3343)" width="20.7493" />
    <path
        d="M214.409 120.692C214.409 112.142 211.874 103.784 207.124 96.6756C202.374 89.5669 195.623 84.0263 187.724 80.7545C179.825 77.4827 171.134 76.6266 162.748 78.2946C154.363 79.9625 146.66 84.0796 140.615 90.1251C134.569 96.1706 130.452 103.873 128.784 112.258C127.117 120.644 127.973 129.335 131.244 137.234C134.516 145.133 140.057 151.884 147.166 156.634C154.274 161.384 162.632 163.919 171.182 163.919L171.182 142.305C166.907 142.305 162.728 141.038 159.174 138.663C155.619 136.288 152.849 132.912 151.213 128.963C149.577 125.013 149.149 120.668 149.983 116.475C150.817 112.282 152.875 108.431 155.898 105.408C158.921 102.386 162.772 100.327 166.965 99.4931C171.158 98.6591 175.503 99.0872 179.453 100.723C183.402 102.359 186.778 105.129 189.153 108.684C191.528 112.238 192.795 116.417 192.795 120.692H214.409Z"
        fill="#E45959" />
    <path
        d="M171.182 88.3705C171.182 82.402 166.27 77.3312 160.487 78.8078C157.132 79.6644 153.88 80.9239 150.804 82.5682C144.535 85.9193 139.188 90.7648 135.239 96.6756C131.29 102.586 128.859 109.38 128.162 116.455C127.465 123.529 128.524 130.666 131.244 137.234C133.965 143.802 138.263 149.597 143.758 154.107C149.253 158.617 155.776 161.702 162.748 163.089C169.72 164.476 176.927 164.122 183.73 162.058C187.068 161.045 190.258 159.637 193.235 157.87C198.369 154.825 198.256 147.767 194.036 143.546V143.546C189.893 139.403 183.063 139.674 177.456 141.375V141.375C174.054 142.407 170.451 142.584 166.965 141.89C163.479 141.197 160.217 139.654 157.47 137.399C154.722 135.144 152.573 132.247 151.213 128.963C149.853 125.679 149.323 122.11 149.672 118.573C150.02 115.036 151.236 111.639 153.21 108.684C155.185 105.728 157.858 103.305 160.993 101.63V101.63C166.16 98.8678 171.182 94.23 171.182 88.3705V88.3705Z"
        fill="#E45959" />
    <rect fill="#E45959" height="86.4553" rx="10.3746"
        transform="matrix(0 -1 -1 0 214.409 131.066)" width="20.7493" />
    <rect fill="#E45959" height="89.2219" rx="10.3746" transform="matrix(-1 0 0 1 320.922 74.6974)"
        width="20.7493" />
    <path
        d="M276.311 153.525C276.311 159.266 271.596 164.039 266.011 162.714C260.872 161.494 255.964 159.366 251.527 156.401C244.191 151.499 238.473 144.532 235.096 136.38C231.72 128.229 230.836 119.259 232.558 110.605C234.279 101.952 238.528 94.0026 244.767 87.7636C251.006 81.5247 258.954 77.2759 267.608 75.5546C276.262 73.8333 285.232 74.7167 293.383 78.0932C301.535 81.4697 308.502 87.1876 313.404 94.5238C316.369 98.9608 318.497 103.869 319.717 109.008C321.042 114.593 316.269 119.308 310.528 119.308V119.308C304.787 119.308 300.328 114.443 297.902 109.241C297.391 108.146 296.796 107.086 296.119 106.073C293.501 102.156 289.781 99.1025 285.428 97.2995C281.075 95.4964 276.285 95.0247 271.664 95.9438C267.043 96.863 262.798 99.1319 259.466 102.463C256.135 105.795 253.866 110.04 252.947 114.661C252.028 119.282 252.499 124.072 254.302 128.425C256.105 132.778 259.159 136.498 263.076 139.116C264.089 139.793 265.148 140.388 266.243 140.899C271.446 143.325 276.311 147.784 276.311 153.525V153.525Z"
        fill="#E45959" />
    <path
        d="M357.925 10.3746C357.925 4.64488 353.28 0 347.55 0V0C341.821 0 337.176 4.64488 337.176 10.3746V153.545C337.176 159.274 341.821 163.919 347.55 163.919V163.919C353.28 163.919 357.925 159.274 357.925 153.545V10.3746Z"
        fill="#E45959" />
    <rect fill="#E45959" height="163.919" rx="10.3746" transform="matrix(-1 0 0 1 420.173 0)"
        width="20.7493" />
    <rect fill="#E45959" height="69.1643" rx="10.3746" transform="matrix(0 -1 -1 0 444.38 92.3343)"
        width="20.7493" />
    <rect fill="#E45959" height="163.919" rx="10.3746" transform="matrix(-1 0 0 1 482.421 0)"
        width="20.7493" />
    <rect fill="#E45959" height="68.1268" rx="10.3746" transform="matrix(-1 0 0 1 543.285 95.7925)"
        width="20.7493" />
    <path
        d="M543.285 110.317C543.285 104.958 542.23 99.6518 540.179 94.7009C538.128 89.7499 535.123 85.2514 531.333 81.4622C527.544 77.6729 523.045 74.6671 518.095 72.6163C513.144 70.5656 507.837 69.5101 502.478 69.5101C497.12 69.5101 491.813 70.5656 486.862 72.6163C481.911 74.6671 477.413 77.6729 473.624 81.4622C469.834 85.2514 466.828 89.75 464.778 94.7009C462.727 99.6518 461.672 104.958 461.672 110.317L482.422 110.317C482.422 107.683 482.941 105.075 483.949 102.642C484.956 100.208 486.434 97.9973 488.296 96.1348C490.159 94.2724 492.37 92.7951 494.803 91.7871C497.236 90.7792 499.845 90.2604 502.478 90.2604C505.112 90.2604 507.72 90.7792 510.154 91.7871C512.587 92.7951 514.798 94.2724 516.661 96.1348C518.523 97.9973 520 100.208 521.008 102.642C522.016 105.075 522.535 107.683 522.535 110.317H543.285Z"
        fill="#E45959" />
    <rect fill="#E45959" height="120.346" rx="10.3746" transform="matrix(-1 0 0 1 20.7493 224.784)"
        width="20.7493" />
    <rect fill="#E45959" height="120.346" rx="10.3746" transform="matrix(-1 0 0 1 20.7493 224.784)"
        width="20.7493" />
    <path
        d="M56.0231 181.21C44.9427 181.21 34.1113 184.496 24.8983 190.652C15.6854 196.808 8.50478 205.557 4.26452 215.794C0.0242619 226.031 -1.08519 237.296 1.07645 248.163C3.2381 259.03 8.57376 269.013 16.4087 276.848C24.2436 284.683 34.226 290.018 45.0934 292.18C55.9608 294.342 67.2251 293.232 77.462 288.992C87.6989 284.752 96.4485 277.571 102.604 268.358C108.76 259.145 112.046 248.314 112.046 237.234L91.3176 237.234C91.3176 244.214 89.2475 251.038 85.3693 256.842C81.4911 262.646 75.9788 267.17 69.5296 269.841C63.0804 272.513 55.9838 273.212 49.1374 271.85C42.2909 270.488 36.002 267.126 31.066 262.19C26.13 257.254 22.7685 250.965 21.4067 244.119C20.0449 237.273 20.7438 230.176 23.4152 223.727C26.0865 217.278 30.6103 211.765 36.4145 207.887C42.2186 204.009 49.0425 201.939 56.0231 201.939L56.0231 181.21Z"
        fill="#E45959" />
    <path
        d="M56.0231 282.892C56.0231 288.616 60.7021 293.353 66.3285 292.301C73.7356 290.914 80.8231 288.041 87.1478 283.815C96.3607 277.659 103.541 268.909 107.782 258.673C112.022 248.436 113.131 237.171 110.97 226.304C108.808 215.437 103.472 205.454 95.6374 197.619C87.8025 189.784 77.8201 184.449 66.9527 182.287C56.0853 180.125 44.821 181.235 34.5841 185.475C24.3472 189.715 15.5976 196.896 9.44169 206.109C5.21564 212.433 2.34227 219.521 0.956 226.928C-0.0969866 232.554 4.64024 237.233 10.3643 237.233V237.233C16.0883 237.233 20.5826 232.496 22.2394 227.017C23.2418 223.703 24.7319 220.535 26.6768 217.625C30.555 211.821 36.0673 207.297 42.5165 204.626C48.9658 201.954 56.0623 201.255 62.9088 202.617C69.7552 203.979 76.0441 207.34 80.9801 212.276C85.9161 217.213 89.2776 223.501 90.6394 230.348C92.0013 237.194 91.3023 244.291 88.6309 250.74C85.9596 257.189 81.4358 262.702 75.6316 266.58C72.721 268.525 69.5539 270.015 66.2391 271.017C60.7602 272.674 56.0231 277.168 56.0231 282.892V282.892Z"
        fill="#E45959" />
    <path
        d="M171.182 258.674C176.858 258.674 182.479 259.792 187.724 261.965C192.969 264.137 197.734 267.321 201.748 271.335C205.762 275.35 208.946 280.115 211.119 285.36C213.291 290.604 214.409 296.225 214.409 301.902C214.409 307.579 213.291 313.2 211.119 318.445C208.946 323.689 205.762 328.455 201.748 332.469C197.734 336.483 192.969 339.667 187.724 341.839C182.479 344.012 176.858 345.13 171.182 345.13V323.516C174.02 323.516 176.83 322.957 179.453 321.871C182.075 320.784 184.458 319.192 186.465 317.185C188.472 315.178 190.064 312.796 191.15 310.173C192.236 307.551 192.795 304.74 192.795 301.902C192.795 299.064 192.236 296.253 191.15 293.631C190.064 291.008 188.472 288.626 186.465 286.619C184.458 284.612 182.075 283.02 179.453 281.933C176.83 280.847 174.02 280.288 171.182 280.288V258.674Z"
        fill="#E45959" />
    <path
        d="M171.182 258.674C165.505 258.674 159.884 259.792 154.639 261.965C149.394 264.137 144.629 267.321 140.615 271.335C136.601 275.35 133.417 280.115 131.244 285.36C129.072 290.604 127.954 296.225 127.954 301.902C127.954 307.579 129.072 313.2 131.244 318.445C133.417 323.689 136.601 328.455 140.615 332.469C144.629 336.483 149.394 339.667 154.639 341.839C159.884 344.012 165.505 345.13 171.182 345.13L171.182 323.516C168.343 323.516 165.533 322.957 162.91 321.871C160.288 320.784 157.905 319.192 155.898 317.185C153.891 315.178 152.299 312.796 151.213 310.173C150.127 307.551 149.568 304.74 149.568 301.902C149.568 299.064 150.127 296.253 151.213 293.631C152.299 291.008 153.891 288.626 155.898 286.619C157.905 284.612 160.288 283.02 162.91 281.933C165.533 280.847 168.343 280.288 171.182 280.288V258.674Z"
        fill="#E45959" />
    <path
        d="M252.45 267.393C252.45 263.344 248.231 260.677 244.573 262.413V262.413C243.099 263.112 241.371 263.113 239.889 262.433V262.433C236.094 260.691 231.7 263.431 231.7 267.606V334.755C231.7 340.485 236.345 345.13 242.075 345.13V345.13C247.805 345.13 252.45 340.485 252.45 334.755V267.393Z"
        fill="#E45959" />
    <circle cx="242.075" cy="247.608" fill="#E45959" r="10.3746" />
    <rect fill="#E45959" height="86.4553" rx="10.3746" transform="matrix(-1 0 0 1 297.061 258.674)"
        width="20.7493" />
    <rect fill="#E45959" height="56.3689" rx="10.3746" transform="matrix(-1 0 0 1 357.925 288.069)"
        width="20.7493" />
    <path
        d="M357.925 298.79C357.925 293.431 356.87 288.124 354.819 283.173C352.768 278.223 349.762 273.724 345.973 269.935C342.184 266.146 337.685 263.14 332.734 261.089C327.783 259.038 322.477 257.983 317.118 257.983C311.759 257.983 306.453 259.038 301.502 261.089C296.551 263.14 292.053 266.146 288.263 269.935C284.474 273.724 281.468 278.223 279.418 283.173C277.367 288.124 276.311 293.431 276.311 298.79L297.062 298.79C297.062 296.156 297.58 293.548 298.588 291.114C299.596 288.681 301.074 286.47 302.936 284.607C304.798 282.745 307.009 281.268 309.443 280.26C311.876 279.252 314.484 278.733 317.118 278.733C319.752 278.733 322.36 279.252 324.794 280.26C327.227 281.268 329.438 282.745 331.3 284.607C333.163 286.47 334.64 288.681 335.648 291.114C336.656 293.548 337.175 296.156 337.175 298.79H357.925Z"
        fill="#E45959" />
    <rect fill="#E45959" height="163.919" rx="10.3746" transform="matrix(-1 0 0 1 420.173 181.21)"
        width="20.7493" />
    <rect fill="#E45959" height="69.1643" rx="10.3746" transform="matrix(0 -1 -1 0 444.38 273.545)"
        width="20.7493" />
    <path
        d="M600 250.375C600 232.031 592.713 214.439 579.742 201.468C566.771 188.497 549.179 181.21 530.836 181.21C512.492 181.21 494.9 188.497 481.929 201.468C468.958 214.439 461.672 232.031 461.672 250.375L489.337 250.375C489.337 239.369 493.709 228.813 501.492 221.031C509.274 213.248 519.83 208.876 530.836 208.876C541.842 208.876 552.397 213.248 560.18 221.031C567.962 228.813 572.334 239.369 572.334 250.375H600Z"
        fill="#80CB5D" />
    <path
        d="M600 250.375C600 268.718 592.713 286.31 579.742 299.281C566.771 312.252 549.179 319.539 530.836 319.539C512.492 319.539 494.9 312.252 481.929 299.281C468.958 286.31 461.672 268.718 461.672 250.375L489.337 250.375C489.337 261.381 493.709 271.936 501.492 279.719C509.274 287.501 519.83 291.873 530.836 291.873C541.842 291.873 552.397 287.501 560.18 279.719C567.962 271.936 572.334 261.381 572.334 250.375H600Z"
        fill="#80CB5D" />
    <rect fill="#BA6B3E" height="85.7637" rx="10.3746" width="20.7493" x="520.461" y="258.674" />
    <rect fill="#BA6B3E" height="34.5821" rx="6.91643" transform="rotate(-45 506.282 272.951)" width="13.8329"
        x="506.282" y="272.951" />
    <rect fill="#BA6B3E" height="34.5821" rx="6.91643"
        transform="matrix(-0.707107 -0.707107 -0.707107 0.707107 555.387 272.951)" width="13.8329" />
    <rect fill="#BA6B3E" height="34.5821" rx="6.91643"
        transform="matrix(0.707107 0.707107 0.707107 -0.707107 506.282 334.655)" width="13.8329" />
    <rect fill="#BA6B3E" height="34.5821" rx="6.91643" transform="rotate(135 555.387 334.655)" width="13.8329"
        x="555.387" y="334.655" />
</svg>
