<svg fill="none" height="91" viewBox="0 0 263 91" width="263" xmlns="http://www.w3.org/2000/svg">
    <path d="M40 91C17.9086 91 0 73.0914 0 51L0 40C0 17.9086 17.9086 0 40 0L236 0V91L40 91Z"
        fill="#151515" />
    <path d="M213 0H238L263 91H213V0Z" fill="#151515" />
    <path d="M163 20C163 8.9543 171.954 0 183 0C194.046 0 203 8.95431 203 20V91H163V20Z"
        fill="#151515" />
    <path
        d="M193.5 83C186.596 83 181 77.4036 181 70.5C181 63.5964 186.596 58 193.5 58H236V83H193.5Z"
        fill="#D9D9D9" />
    <path
        d="M197.5 33C190.596 33 185 27.4036 185 20.5C185 13.5964 190.596 8 197.5 8L229 8V33H197.5Z"
        fill="#D9D9D9" />
    <path d="M185 8H208L196 83H171L185 8Z" fill="#D9D9D9" />
    <path d="M208 8H229L246 83H221L208 8Z" fill="#D9D9D9" />
    <rect fill="#151515" height="75" transform="rotate(-90 81 63)" width="35" x="81" y="63" />
    <rect fill="#151515" height="91" width="40" x="123" />
    <rect fill="#151515" height="91" width="40" x="73" />
    <rect fill="#D9D9D9" height="75" transform="rotate(-90 81 58)" width="25" x="81" y="58" />
    <rect fill="#D9D9D9" height="75" width="25" x="81" y="8" />
    <rect fill="#D9D9D9" height="75" width="25" x="131" y="8" />
    <path
        d="M77.6734 13.3266C71.3101 6.96335 63.2027 2.62989 54.3766 0.874268C45.5505 -0.881358 36.4019 0.0196953 28.0879 3.46348C19.7739 6.90727 12.6677 12.7391 7.66813 20.2216C2.66853 27.704 -1.35882e-06 36.501 0 45.5C1.35882e-06 54.4991 2.66853 63.296 7.66814 70.7785C12.6677 78.2609 19.7739 84.0927 28.0879 87.5365C36.4019 90.9803 45.5505 91.8814 54.3766 90.1257C63.2028 88.3701 71.3101 84.0366 77.6734 77.6734L53.6443 53.6443C52.0335 55.2551 49.9812 56.352 47.747 56.7965C45.5128 57.2409 43.1969 57.0128 41.0923 56.141C38.9877 55.2693 37.1889 53.793 35.9233 51.8989C34.6577 50.0048 33.9822 47.778 33.9822 45.5C33.9822 43.222 34.6577 40.9952 35.9233 39.1011C37.1889 37.207 38.9877 35.7307 41.0923 34.859C43.1969 33.9872 45.5128 33.7591 47.747 34.2035C49.9812 34.648 52.0335 35.7449 53.6443 37.3557L77.6734 13.3266Z"
        fill="#151515" />
    <path
        d="M72.0165 18.9835C66.772 13.739 60.0902 10.1675 52.8159 8.72055C45.5416 7.27361 38.0016 8.01623 31.1494 10.8545C24.2971 13.6928 18.4404 18.4993 14.3199 24.6661C10.1993 30.833 8 38.0832 8 45.5C8 52.9168 10.1993 60.167 14.3199 66.3339C18.4404 72.5007 24.2971 77.3072 31.1494 80.1455C38.0016 82.9838 45.5416 83.7264 52.8159 82.2794C60.0902 80.8325 66.772 77.261 72.0165 72.0165L58.7583 58.7583C56.136 61.3805 52.7951 63.1662 49.1579 63.8897C45.5208 64.6132 41.7508 64.2419 38.3247 62.8227C34.8986 61.4036 31.9702 59.0004 29.9099 55.9169C27.8497 52.8335 26.75 49.2084 26.75 45.5C26.75 41.7916 27.8497 38.1665 29.9099 35.0831C31.9702 31.9996 34.8986 29.5964 38.3247 28.1773C41.7508 26.7581 45.5208 26.3868 49.1579 27.1103C52.7951 27.8337 56.136 29.6195 58.7583 32.2417L72.0165 18.9835Z"
        fill="#D9D9D9" />
</svg>
